# xmcd CD database file
# Copyright (C) 1993-1996 Ti Kan
#
# Track frame offsets:
# 182
# 13602
# 24815
# 37245
# 48912
# 61290
# 74082
# 88840
# 100582
# 113020
#
# Disc length: 1670 seconds
#
# Revision: 0
# Processed by: cddbd v1.4b41PL1 Copyright (c) Steve Scherf et al.
# Submitted via: inCDius 1.1b5
#
DISCID=7d06840a
DTITLE=Rex Allen Jr. - The Very Best Of Rex Allen Jr.
DYEAR=1900
DGENRE=
TTITLE0=The Great Mail Robbery
TTITLE1=Goodbye
TTITLE2=Two Less Lonely People
TTITLE3=I'm Getting Good At Missing You (Solitaire)
TTITLE4=Don't Say Goodbye
TTITLE5=Lonely Street
TTITLE6=No, No, No (I'd Rather Be Free)
TTITLE7=With Love
TTITLE8=Drink IT Down Lady
TTITLE9=It's Over
EXTD=
EXTT0=
EXTT1=
EXTT2=
EXTT3=
EXTT4=
EXTT5=
EXTT6=
EXTT7=
EXTT8=
EXTT9=
PLAYORDER=
